<svg width="400" height="400" viewBox="0 0 400 400" fill="none" xmlns="http://www.w3.org/2000/svg">
<path d="M47.4479 208.819C42.0668 207.623 36.507 207.738 31.172 209.155C25.8371 210.572 20.861 213.256 16.605 217.011C12.349 220.766 8.91985 225.499 6.56659 230.865C4.21333 236.232 2.99499 242.098 3.00002 248.037C3.00504 253.976 4.23331 259.839 6.59565 265.201C8.95799 270.563 12.3951 275.288 16.6575 279.035C20.9198 282.782 25.9005 285.456 31.2378 286.862C36.5751 288.269 42.1352 288.373 47.5143 287.166L40 248L47.4479 208.819Z" fill="#F7A882"/>
<path d="M351.527 287.176C356.908 288.375 362.467 288.264 367.803 286.851C373.139 285.438 378.117 282.758 382.375 279.006C386.634 275.254 390.066 270.524 392.423 265.159C394.779 259.795 396.001 253.93 396 247.991C395.999 242.052 394.774 236.188 392.415 230.824C390.056 225.46 386.622 220.732 382.362 216.982C378.102 213.232 373.123 210.555 367.787 209.144C362.45 207.734 356.891 207.626 351.511 208.828L359 248L351.527 287.176Z" fill="#F7A882"/>
<path d="M46 209L33.5 211.5L46.5 214.5L35.5 241L45.5 286.5L47 295L48.5 302L50.5 308.5L53 316.5L57 325L62 333L66.5 338L71.5 343.5L77.5 348.5L85.5 354L96.5 360L106.5 364L115.5 367L126 370L137 372.5L150.5 374.5L164 376L176 377L186.5 377.5L197.5 378H210H223.5L234 377.5L244.5 377L251 376L269 373.5L277 372L284.5 370L290.5 368L297.5 365.5L305 362L313 358L319 354L326.5 348L333.5 341L339.5 333L344 326L349.5 314.5L353 305L357.5 287L361 208.5L360 211.5L343 209L322.5 201.5L312.5 195.5L301.5 186L294 177L289 164.5L291.5 176L295 183.5L300.5 190L309 205.5L291.5 200.5L277 195.5L267 189.5L256.5 183.5L245.5 176L221.5 153.5L223.5 158.5L228.5 165.5L237 176L242.5 184.5L260.5 201.5L245.5 198L231 192.5L214 184.5L198 176L186.5 168.5L176.5 162L165 153.5L153.5 145L148.5 139.5L141 132L132 141L124 149.5L115 158.5L107.5 166L100 172L83 186.5L62 201.5L55.5 204.5L46 209Z" fill="#F7A882"/>
<path d="M33 209L33.5 211.5M33.5 211.5L46 209L55.5 204.5L62 201.5L83 186.5L100 172L107.5 166L115 158.5L124 149.5L132 141L141 132L148.5 139.5L153.5 145L165 153.5L176.5 162L186.5 168.5L198 176L214 184.5L231 192.5L245.5 198L260.5 201.5L242.5 184.5L237 176L228.5 165.5L223.5 158.5L221.5 153.5L245.5 176L256.5 183.5L267 189.5L277 195.5L291.5 200.5L309 205.5L300.5 190L295 183.5L291.5 176L289 164.5L294 177L301.5 186L312.5 195.5L322.5 201.5L343 209L360 211.5L361 208.5L357.5 287L353 305L349.5 314.5L344 326L339.5 333L333.5 341L326.5 348L319 354L313 358L305 362L297.5 365.5L290.5 368L284.5 370L277 372L269 373.5L251 376L244.5 377L234 377.5L223.5 378H210H197.5L186.5 377.5L176 377L164 376L150.5 374.5L137 372.5L126 370L115.5 367L106.5 364L96.5 360L85.5 354L77.5 348.5L71.5 343.5L66.5 338L62 333L57 325L53 316.5L50.5 308.5L48.5 302L47 295L45.5 286.5L35.5 241L46.5 214.5L33.5 211.5Z" stroke="#F7A882"/>
<path d="M46 209L34 211.5L32 198V186L34 165.5L37 150.5L43.5 129.5L50 113L58.5 94.5L70 78.5L86 62.5L103 49L124 37L149 28.5L172 23L198 21L224 23L249 26.5L274 34.5L292.5 44.5L309.5 55L328 71.5L343 91.5L355.5 113L363.5 134.5L369 159L370 173L369 186L366 198L360 211.5L343 209L323 201.5L313 195.5L302 186L294.5 177L288.5 163.5L291 174.5L294.5 182.5L300.5 190.5L305 198L309.5 205.5L294.5 201.5L278 195.5L260.5 186.5L246 177L233.5 165.5L221 153L224 159L229 165.5L241 182.5L260.5 201.5L246 198L226.5 190.5L210 182.5L195.5 174.5L172 159L153.5 145L141 132L108 165.5L83 186.5L61.5 201.5L46 209Z" fill="#999999" stroke="#999999"/>
<circle cx="136.5" cy="237.5" r="49.5" fill="#DCAF91" stroke="#315160" stroke-width="6"/>
<circle cx="262.5" cy="237.5" r="49.5" fill="#DCAF91" stroke="#315160" stroke-width="6"/>
<path d="M360.5 270C363.061 270 365.596 269.431 367.962 268.325C370.328 267.22 372.478 265.599 374.289 263.556C376.099 261.513 377.536 259.088 378.516 256.419C379.496 253.75 380 250.889 380 248C380 245.111 379.496 242.25 378.516 239.581C377.536 236.912 376.099 234.487 374.289 232.444C372.478 230.401 370.328 228.78 367.962 227.675C365.596 226.569 363.061 226 360.5 226L360.5 248L360.5 270Z" fill="#F7B39A"/>
<path d="M42 226C38.8483 226 35.7274 226.569 32.8156 227.675C29.9038 228.78 27.258 230.401 25.0294 232.444C22.8008 234.487 21.033 236.912 19.8269 239.581C18.6208 242.25 18 245.111 18 248C18 250.889 18.6208 253.75 19.8269 256.419C21.033 259.088 22.8008 261.513 25.0294 263.556C27.258 265.599 29.9038 267.22 32.8156 268.325C35.7274 269.431 38.8483 270 42 270L42 248L42 226Z" fill="#F7B39A"/>
<path d="M314.5 237.5H330.5" stroke="#315160" stroke-width="6"/>
<path d="M68 237H84" stroke="#315160" stroke-width="6"/>
<path d="M188 238.5C199.5 232 210 237.5 213 238.5" stroke="#315160" stroke-width="6"/>
<path d="M135.5 243.5C107 241 108 209.7 108 208.5C83.0001 227 93.5 265.585 117 278C143.5 292 169.869 267.882 176 250.5V248L172 247C172 247 164 246 135.5 243.5Z" fill="#C6AC93"/>
<path d="M262.901 242C234.401 239.5 235.401 208.2 235.401 207C210.401 225.5 220.901 264.085 244.401 276.5C270.901 290.5 297.27 266.382 303.401 249V246.5L299.401 245.5C299.401 245.5 291.401 244.5 262.901 242Z" fill="#C6AC93"/>
<path d="M132 326.5L129.5 334.5H143.5L156.5 333L173.5 329.5L186 325L191 322L196 318L199 314.5L202 318L207 322L215.5 326.5L227.5 329.5L236.5 331.5L246.5 333L259 334.5H269.5L267 326.5L263 320L259 313L253 305.5L246.5 297.5L240.5 292L234.5 287.5L227.5 283.5L222.5 281.5H213.5L207 283.5L202 286L199 289.5L196 286L192.5 283.5L186 281.5H178.5L171 283.5L164.5 287.5L154 295.5L145 305.5L137.5 316.5L132 326.5Z" fill="#999999"/>
<path d="M136.5 202.5L135 204V206L135.5 208L138 211L140.5 214L144 217L148 219.5L153.5 223.5L158.5 226L161.5 227.5L164.5 229L167.5 229.5H170L172.5 229L173 227.5V226L172.5 223.5L171.5 221.5L170 218.5L167.5 214.5L165 211L162 208L158.5 205.5L153.5 203L149.5 201.5L145.5 201H141.5L138 201.5L136.5 202.5Z" fill="#F5EFDB"/>
<path d="M263.5 202.5L262 204V206L262.5 208L265 211L267.5 214L271 217L275 219.5L280.5 223.5L285.5 226L288.5 227.5L291.5 229L294.5 229.5H297L299.5 229L300 227.5V226L299.5 223.5L298.5 221.5L297 218.5L294.5 214.5L292 211L289 208L285.5 205.5L280.5 203L276.5 201.5L272.5 201H268.5L265 201.5L263.5 202.5Z" fill="#F5EFDB"/>
<ellipse cx="145.5" cy="236" rx="10.5" ry="17" fill="#6F4C4B"/>
<ellipse cx="247.5" cy="236" rx="10.5" ry="17" fill="#6F4C4B"/>
</svg>
