<svg width="428" height="60" viewBox="0 0 428 60" fill="none" xmlns="http://www.w3.org/2000/svg">
<path d="M0 15V9H40V15H23V59.5H16V15H0Z" fill="white"/>
<circle cx="60.5062" cy="52.5" r="7.5" fill="#3D5A80"/>
<path fill-rule="evenodd" clip-rule="evenodd" d="M121.006 0H90.0062C90.0062 0 86.9497 0.229341 85.5062 1.5C84.0626 2.77066 83.0062 6 83.0062 6C83.0062 6 82.5062 51 83.0062 53C83.5062 55 84.5062 56.5 85.5062 57.5C86.5062 58.5 89.5062 59 89.5062 59H122.506C122.506 59 125.364 57.9454 126.506 56.5C127.54 55.191 128.006 52.5 128.006 52.5V6.5C128.006 5 127.162 3.23647 126.006 2C124.809 0.719157 122.506 0 121.006 0ZM87.5062 7.5H123.006V47.5H87.5062V7.5ZM110.506 54.5H100.506V51.5H110.506V54.5Z" fill="white"/>
<circle cx="150.506" cy="52.5" r="7.5" fill="#2B6D94"/>
<path d="M177.506 58.5H171.6L181.006 8.5H183.506L196.506 45.5L208.006 8.5H210.506L220.506 58.5H214.506L208.006 26L197.006 59H195.506L183.506 26L177.506 58.5Z" fill="white"/>
<circle cx="240.506" cy="52.5" r="7.5" fill="#4485AB"/>
<path fill-rule="evenodd" clip-rule="evenodd" d="M263.506 59.5H272.006L275.506 49.5H293.506L297.006 59.5H304.506L285.506 8.5H284.006L263.506 59.5ZM284.506 21L292.506 44H276.506L284.506 21Z" fill="white"/>
<circle cx="329.506" cy="52.5" r="7.5" fill="#619DC0"/>
<path d="M387.506 10L385.506 15L378.506 13C373.254 12.1154 371.306 12.6732 368.506 16.9999C367.536 22.1539 367.753 23.7334 370.506 26.4999L384.006 33.4999C389.142 37.713 390.396 41.4676 390.006 48C387.807 53.4308 385.851 55.7453 380.506 58C376.651 59.0062 373.632 59.0705 369.006 59L365.006 58L362.006 56L364.506 50.5L374.006 53.5C379.188 52.7838 381.29 51.6912 383.006 48C383.937 43.7204 383.359 41.5187 380.006 38L372.506 34.5L366.006 30.5C361.094 24.447 360.046 20.2312 364.006 12.5C370.864 5.87165 376.506 5.49999 387.506 10Z" fill="white"/>
<circle cx="419.506" cy="52.5" r="7.5" fill="#98C1D9"/>
</svg>
